<svg xmlns="http://www.w3.org/2000/svg" xmlns:xlink="http://www.w3.org/1999/xlink" width="467" zoomAndPan="magnify" viewBox="0 0 350.25 155.249994" height="207" preserveAspectRatio="xMidYMid meet" version="1.2"><defs><clipPath id="20ed106886"><path d="M 55 96 L 163.929688 96 L 163.929688 135 L 55 135 Z M 55 96 "/></clipPath></defs><g id="f78bf27232"><path style=" stroke:none;fill-rule:nonzero;fill:#d9d9d9;fill-opacity:1;" d="M 113.015625 144.296875 C 114.941406 143.722656 116.820312 143.0625 118.648438 142.328125 C 87.015625 148.589844 55.230469 129.839844 45.867188 98.308594 C 36.503906 66.773438 52.902344 33.71875 82.828125 21.695312 C 80.894531 22.078125 78.960938 22.550781 77.03125 23.121094 C 43.570312 33.058594 24.5 68.242188 34.4375 101.699219 C 44.371094 135.160156 79.554688 154.230469 113.015625 144.296875 "/><path style=" stroke:none;fill-rule:nonzero;fill:#289db9;fill-opacity:1;" d="M 34.707031 128.253906 C 36.382812 129.570312 38.105469 130.789062 39.863281 131.917969 C 15.050781 108.414062 11.761719 69.445312 33.273438 42.007812 C 54.78125 14.574219 93.414062 8.472656 122.15625 26.964844 C 120.640625 25.527344 119.046875 24.144531 117.371094 22.832031 C 88.257812 0.00390625 46.152344 5.097656 23.328125 34.210938 C 0.5 63.324219 5.59375 105.429688 34.707031 128.253906 "/><g clip-rule="nonzero" clip-path="url(#20ed106886)"><path style=" stroke:none;fill-rule:nonzero;fill:#289db9;fill-opacity:1;" d="M 96.996094 125.195312 C 79.734375 120.554688 65.53125 110.203125 55.875 96.722656 C 63.488281 113.535156 78.285156 126.929688 97.5 132.09375 C 122.59375 138.839844 148.214844 129.65625 163.632812 110.734375 C 145.703125 125.507812 121.140625 131.683594 96.996094 125.195312 "/></g><g style="fill:#0097b2;fill-opacity:1;"><g transform="translate(44.285024, 90.655645)"><path style="stroke:none" d="M 24.46875 -22.890625 L 16.3125 -22.890625 L 12.34375 0 L 6.8125 0 L 10.78125 -22.890625 L 2.71875 -22.890625 L 3.53125 -27.484375 L 25.28125 -27.484375 Z M 24.46875 -22.890625 "/></g></g><g style="fill:#0097b2;fill-opacity:1;"><g transform="translate(65.855388, 90.655645)"><path style="stroke:none" d="M 11.875 0 C 11.707031 -0.519531 11.640625 -1.132812 11.671875 -1.84375 C 10.128906 -0.3125 8.390625 0.425781 6.453125 0.375 C 4.671875 0.351562 3.191406 -0.222656 2.015625 -1.359375 C 0.835938 -2.503906 0.285156 -3.914062 0.359375 -5.59375 C 0.441406 -7.8125 1.375 -9.515625 3.15625 -10.703125 C 4.9375 -11.898438 7.328125 -12.5 10.328125 -12.5 L 12.8125 -12.453125 L 13.078125 -13.6875 C 13.148438 -14.101562 13.171875 -14.5 13.140625 -14.875 C 13.078125 -15.46875 12.851562 -15.929688 12.46875 -16.265625 C 12.082031 -16.597656 11.578125 -16.769531 10.953125 -16.78125 C 10.117188 -16.800781 9.410156 -16.59375 8.828125 -16.15625 C 8.253906 -15.726562 7.882812 -15.101562 7.71875 -14.28125 L 2.375 -14.265625 C 2.46875 -16.210938 3.363281 -17.796875 5.0625 -19.015625 C 6.769531 -20.234375 8.875 -20.828125 11.375 -20.796875 C 13.695312 -20.742188 15.507812 -20.054688 16.8125 -18.734375 C 18.125 -17.410156 18.671875 -15.703125 18.453125 -13.609375 L 16.890625 -3.828125 L 16.796875 -2.625 C 16.773438 -1.726562 16.882812 -0.972656 17.125 -0.359375 L 17.09375 0 Z M 7.78125 -3.75 C 9.3125 -3.707031 10.648438 -4.375 11.796875 -5.75 L 12.453125 -9.28125 L 10.609375 -9.3125 C 8.640625 -9.257812 7.222656 -8.660156 6.359375 -7.515625 C 6.046875 -7.097656 5.851562 -6.585938 5.78125 -5.984375 C 5.675781 -5.304688 5.816406 -4.769531 6.203125 -4.375 C 6.585938 -3.976562 7.113281 -3.769531 7.78125 -3.75 Z M 7.78125 -3.75 "/></g></g><g style="fill:#0097b2;fill-opacity:1;"><g transform="translate(84.330032, 90.655645)"><path style="stroke:none" d="M 11.890625 -5.75 C 12.085938 -6.757812 11.390625 -7.492188 9.796875 -7.953125 L 8.078125 -8.375 C 4.015625 -9.5 2.039062 -11.476562 2.15625 -14.3125 C 2.21875 -16.226562 3.066406 -17.796875 4.703125 -19.015625 C 6.347656 -20.234375 8.328125 -20.828125 10.640625 -20.796875 C 12.941406 -20.773438 14.800781 -20.164062 16.21875 -18.96875 C 17.644531 -17.769531 18.375 -16.175781 18.40625 -14.1875 L 13.125 -14.21875 C 13.144531 -15.96875 12.273438 -16.851562 10.515625 -16.875 C 9.679688 -16.875 8.957031 -16.664062 8.34375 -16.25 C 7.738281 -15.832031 7.367188 -15.273438 7.234375 -14.578125 C 7.046875 -13.566406 7.804688 -12.851562 9.515625 -12.4375 L 10.265625 -12.265625 C 12.003906 -11.847656 13.332031 -11.375 14.25 -10.84375 C 15.164062 -10.3125 15.875 -9.644531 16.375 -8.84375 C 16.875 -8.050781 17.101562 -7.101562 17.0625 -6 C 17.019531 -4.707031 16.597656 -3.578125 15.796875 -2.609375 C 15.003906 -1.640625 13.910156 -0.890625 12.515625 -0.359375 C 11.128906 0.171875 9.671875 0.414062 8.140625 0.375 C 5.867188 0.351562 3.976562 -0.289062 2.46875 -1.5625 C 0.957031 -2.84375 0.191406 -4.5 0.171875 -6.53125 L 5.1875 -6.5 C 5.238281 -4.539062 6.285156 -3.550781 8.328125 -3.53125 C 9.304688 -3.53125 10.113281 -3.726562 10.75 -4.125 C 11.382812 -4.53125 11.765625 -5.070312 11.890625 -5.75 Z M 11.890625 -5.75 "/></g></g><g style="fill:#0097b2;fill-opacity:1;"><g transform="translate(101.974117, 90.655645)"><path style="stroke:none" d="M 8.890625 -8.140625 L 6.421875 -5.984375 L 5.375 0 L 0.0625 0 L 5.078125 -29 L 10.421875 -29 L 7.65625 -13.25 L 8.703125 -14.359375 L 14.765625 -20.421875 L 21.59375 -20.421875 L 12.671875 -11.640625 L 18.34375 0 L 12.515625 0 Z M 8.890625 -8.140625 "/></g></g><g style="fill:#289db9;fill-opacity:1;"><g transform="translate(127.258486, 89.90471)"><path style="stroke:none" d="M 12.28125 -27.5 L 15.65625 -7.609375 L 25.90625 -27.5 L 33.265625 -27.5 L 28.5 0 L 22.9375 0 L 24.296875 -7.84375 L 26.984375 -20.078125 L 16.453125 0 L 12.65625 0 L 8.96875 -20.765625 L 7.1875 -7.234375 L 5.921875 0 L 0.390625 0 L 5.171875 -27.5 Z M 12.28125 -27.5 "/></g></g><g style="fill:#289db9;fill-opacity:1;"><g transform="translate(158.47512, 89.90471)"><path style="stroke:none" d="M 11.875 0 C 11.707031 -0.519531 11.640625 -1.132812 11.671875 -1.84375 C 10.128906 -0.3125 8.390625 0.425781 6.453125 0.375 C 4.671875 0.351562 3.191406 -0.222656 2.015625 -1.359375 C 0.835938 -2.503906 0.285156 -3.914062 0.359375 -5.59375 C 0.441406 -7.820312 1.375 -9.53125 3.15625 -10.71875 C 4.9375 -11.90625 7.328125 -12.5 10.328125 -12.5 L 12.828125 -12.46875 L 13.078125 -13.6875 C 13.160156 -14.101562 13.179688 -14.5 13.140625 -14.875 C 13.078125 -15.46875 12.851562 -15.929688 12.46875 -16.265625 C 12.082031 -16.597656 11.578125 -16.769531 10.953125 -16.78125 C 10.117188 -16.8125 9.410156 -16.609375 8.828125 -16.171875 C 8.253906 -15.734375 7.882812 -15.109375 7.71875 -14.296875 L 2.375 -14.28125 C 2.46875 -16.226562 3.363281 -17.804688 5.0625 -19.015625 C 6.769531 -20.234375 8.878906 -20.832031 11.390625 -20.8125 C 13.703125 -20.757812 15.507812 -20.066406 16.8125 -18.734375 C 18.125 -17.410156 18.675781 -15.703125 18.46875 -13.609375 L 16.90625 -3.828125 L 16.8125 -2.625 C 16.78125 -1.726562 16.882812 -0.972656 17.125 -0.359375 L 17.109375 0 Z M 7.78125 -3.75 C 9.3125 -3.707031 10.648438 -4.378906 11.796875 -5.765625 L 12.46875 -9.296875 L 10.609375 -9.3125 C 8.648438 -9.257812 7.234375 -8.660156 6.359375 -7.515625 C 6.046875 -7.097656 5.851562 -6.585938 5.78125 -5.984375 C 5.675781 -5.304688 5.816406 -4.769531 6.203125 -4.375 C 6.585938 -3.976562 7.113281 -3.769531 7.78125 -3.75 Z M 7.78125 -3.75 "/></g></g><g style="fill:#289db9;fill-opacity:1;"><g transform="translate(176.950049, 89.90471)"><path style="stroke:none" d="M 8.484375 -20.453125 L 8.03125 -18.03125 C 9.664062 -19.9375 11.644531 -20.863281 13.96875 -20.8125 C 15.894531 -20.769531 17.316406 -20.0625 18.234375 -18.6875 C 19.160156 -17.320312 19.492188 -15.421875 19.234375 -12.984375 L 17.09375 0 L 11.765625 0 L 13.953125 -13.046875 C 14.015625 -13.535156 14.023438 -13.984375 13.984375 -14.390625 C 13.828125 -15.671875 13.023438 -16.332031 11.578125 -16.375 C 10.179688 -16.425781 8.925781 -15.773438 7.8125 -14.421875 L 5.265625 0 L -0.0625 0 L 3.5 -20.4375 Z M 8.484375 -20.453125 "/></g></g><g style="fill:#289db9;fill-opacity:1;"><g transform="translate(196.331056, 89.90471)"><path style="stroke:none" d="M 11.875 0 C 11.707031 -0.519531 11.640625 -1.132812 11.671875 -1.84375 C 10.128906 -0.3125 8.390625 0.425781 6.453125 0.375 C 4.671875 0.351562 3.191406 -0.222656 2.015625 -1.359375 C 0.835938 -2.503906 0.285156 -3.914062 0.359375 -5.59375 C 0.441406 -7.820312 1.375 -9.53125 3.15625 -10.71875 C 4.9375 -11.90625 7.328125 -12.5 10.328125 -12.5 L 12.828125 -12.46875 L 13.078125 -13.6875 C 13.160156 -14.101562 13.179688 -14.5 13.140625 -14.875 C 13.078125 -15.46875 12.851562 -15.929688 12.46875 -16.265625 C 12.082031 -16.597656 11.578125 -16.769531 10.953125 -16.78125 C 10.117188 -16.8125 9.410156 -16.609375 8.828125 -16.171875 C 8.253906 -15.734375 7.882812 -15.109375 7.71875 -14.296875 L 2.375 -14.28125 C 2.46875 -16.226562 3.363281 -17.804688 5.0625 -19.015625 C 6.769531 -20.234375 8.878906 -20.832031 11.390625 -20.8125 C 13.703125 -20.757812 15.507812 -20.066406 16.8125 -18.734375 C 18.125 -17.410156 18.675781 -15.703125 18.46875 -13.609375 L 16.90625 -3.828125 L 16.8125 -2.625 C 16.78125 -1.726562 16.882812 -0.972656 17.125 -0.359375 L 17.109375 0 Z M 7.78125 -3.75 C 9.3125 -3.707031 10.648438 -4.378906 11.796875 -5.765625 L 12.46875 -9.296875 L 10.609375 -9.3125 C 8.648438 -9.257812 7.234375 -8.660156 6.359375 -7.515625 C 6.046875 -7.097656 5.851562 -6.585938 5.78125 -5.984375 C 5.675781 -5.304688 5.816406 -4.769531 6.203125 -4.375 C 6.585938 -3.976562 7.113281 -3.769531 7.78125 -3.75 Z M 7.78125 -3.75 "/></g></g><g style="fill:#289db9;fill-opacity:1;"><g transform="translate(214.805985, 89.90471)"><path style="stroke:none" d="M 1.078125 -10.234375 C 1.453125 -13.390625 2.476562 -15.953125 4.15625 -17.921875 C 5.84375 -19.898438 7.960938 -20.867188 10.515625 -20.828125 C 12.691406 -20.773438 14.316406 -19.988281 15.390625 -18.46875 L 16.09375 -20.453125 L 20.984375 -20.4375 L 17.640625 -0.703125 C 17.273438 2.015625 16.113281 4.164062 14.15625 5.75 C 12.207031 7.34375 9.789062 8.113281 6.90625 8.0625 C 5.5 8.039062 4.148438 7.734375 2.859375 7.140625 C 1.578125 6.554688 0.523438 5.753906 -0.296875 4.734375 L 2.34375 1.484375 C 3.519531 2.984375 5.003906 3.757812 6.796875 3.8125 C 8.179688 3.863281 9.363281 3.5 10.34375 2.71875 C 11.332031 1.945312 12 0.859375 12.34375 -0.546875 L 12.65625 -1.78125 C 11.164062 -0.289062 9.492188 0.425781 7.640625 0.375 C 5.648438 0.351562 4.070312 -0.378906 2.90625 -1.828125 C 1.738281 -3.285156 1.097656 -5.179688 0.984375 -7.515625 C 0.941406 -8.285156 0.972656 -9.191406 1.078125 -10.234375 Z M 6.3125 -8 C 6.3125 -6.820312 6.554688 -5.875 7.046875 -5.15625 C 7.546875 -4.445312 8.269531 -4.078125 9.21875 -4.046875 C 10.664062 -3.992188 11.945312 -4.609375 13.0625 -5.890625 L 14.65625 -14.546875 C 14.113281 -15.722656 13.113281 -16.335938 11.65625 -16.390625 C 10.289062 -16.429688 9.132812 -15.882812 8.1875 -14.75 C 7.25 -13.613281 6.660156 -12.109375 6.421875 -10.234375 C 6.328125 -9.316406 6.289062 -8.570312 6.3125 -8 Z M 6.3125 -8 "/></g></g><g style="fill:#289db9;fill-opacity:1;"><g transform="translate(234.583395, 89.90471)"><path style="stroke:none" d="M 9.765625 0.375 C 7.972656 0.363281 6.390625 -0.0703125 5.015625 -0.9375 C 3.640625 -1.800781 2.609375 -2.984375 1.921875 -4.484375 C 1.242188 -5.984375 0.984375 -7.640625 1.140625 -9.453125 L 1.1875 -10.21875 C 1.375 -12.207031 1.953125 -14.03125 2.921875 -15.6875 C 3.890625 -17.351562 5.132812 -18.632812 6.65625 -19.53125 C 8.1875 -20.4375 9.875 -20.863281 11.71875 -20.8125 C 14.351562 -20.757812 16.347656 -19.789062 17.703125 -17.90625 C 19.054688 -16.03125 19.566406 -13.648438 19.234375 -10.765625 L 18.9375 -8.4375 L 6.421875 -8.4375 C 6.367188 -7.113281 6.6875 -6.054688 7.375 -5.265625 C 8.070312 -4.472656 9.019531 -4.066406 10.21875 -4.046875 C 12.15625 -3.992188 13.851562 -4.738281 15.3125 -6.28125 L 17.75 -3.265625 C 16.976562 -2.109375 15.867188 -1.203125 14.421875 -0.546875 C 12.972656 0.0976562 11.421875 0.40625 9.765625 0.375 Z M 11.46875 -16.40625 C 10.476562 -16.4375 9.601562 -16.128906 8.84375 -15.484375 C 8.082031 -14.835938 7.398438 -13.722656 6.796875 -12.140625 L 14.125 -12.140625 L 14.234375 -12.625 C 14.304688 -13.132812 14.3125 -13.613281 14.25 -14.0625 C 14.125 -14.789062 13.816406 -15.359375 13.328125 -15.765625 C 12.835938 -16.179688 12.21875 -16.394531 11.46875 -16.40625 Z M 11.46875 -16.40625 "/></g></g><g style="fill:#289db9;fill-opacity:1;"><g transform="translate(253.22821, 89.90471)"><path style="stroke:none" d="M 8.546875 -20.453125 L 8.125 -18.125 C 9.769531 -19.96875 11.765625 -20.863281 14.109375 -20.8125 C 15.367188 -20.78125 16.410156 -20.488281 17.234375 -19.9375 C 18.066406 -19.382812 18.628906 -18.632812 18.921875 -17.6875 C 20.722656 -19.820312 22.835938 -20.863281 25.265625 -20.8125 C 27.140625 -20.769531 28.550781 -20.125 29.5 -18.875 C 30.457031 -17.632812 30.859375 -15.835938 30.703125 -13.484375 L 30.671875 -13.015625 L 28.5 0 L 23.15625 0 L 25.328125 -13.046875 C 25.367188 -13.515625 25.382812 -13.945312 25.375 -14.34375 C 25.289062 -15.664062 24.535156 -16.347656 23.109375 -16.390625 C 21.648438 -16.390625 20.398438 -15.609375 19.359375 -14.046875 L 19.296875 -13.609375 L 16.921875 0 L 11.59375 0 L 13.765625 -13.015625 C 13.816406 -13.472656 13.835938 -13.90625 13.828125 -14.3125 C 13.734375 -15.644531 12.984375 -16.332031 11.578125 -16.375 C 10.222656 -16.40625 9.007812 -15.769531 7.9375 -14.46875 L 5.375 0 L 0.0625 0 L 3.59375 -20.4375 Z M 8.546875 -20.453125 "/></g></g><g style="fill:#289db9;fill-opacity:1;"><g transform="translate(284.06732, 89.90471)"><path style="stroke:none" d="M 9.765625 0.375 C 7.972656 0.363281 6.390625 -0.0703125 5.015625 -0.9375 C 3.640625 -1.800781 2.609375 -2.984375 1.921875 -4.484375 C 1.242188 -5.984375 0.984375 -7.640625 1.140625 -9.453125 L 1.1875 -10.21875 C 1.375 -12.207031 1.953125 -14.03125 2.921875 -15.6875 C 3.890625 -17.351562 5.132812 -18.632812 6.65625 -19.53125 C 8.1875 -20.4375 9.875 -20.863281 11.71875 -20.8125 C 14.351562 -20.757812 16.347656 -19.789062 17.703125 -17.90625 C 19.054688 -16.03125 19.566406 -13.648438 19.234375 -10.765625 L 18.9375 -8.4375 L 6.421875 -8.4375 C 6.367188 -7.113281 6.6875 -6.054688 7.375 -5.265625 C 8.070312 -4.472656 9.019531 -4.066406 10.21875 -4.046875 C 12.15625 -3.992188 13.851562 -4.738281 15.3125 -6.28125 L 17.75 -3.265625 C 16.976562 -2.109375 15.867188 -1.203125 14.421875 -0.546875 C 12.972656 0.0976562 11.421875 0.40625 9.765625 0.375 Z M 11.46875 -16.40625 C 10.476562 -16.4375 9.601562 -16.128906 8.84375 -15.484375 C 8.082031 -14.835938 7.398438 -13.722656 6.796875 -12.140625 L 14.125 -12.140625 L 14.234375 -12.625 C 14.304688 -13.132812 14.3125 -13.613281 14.25 -14.0625 C 14.125 -14.789062 13.816406 -15.359375 13.328125 -15.765625 C 12.835938 -16.179688 12.21875 -16.394531 11.46875 -16.40625 Z M 11.46875 -16.40625 "/></g></g><g style="fill:#289db9;fill-opacity:1;"><g transform="translate(302.712135, 89.90471)"><path style="stroke:none" d="M 8.484375 -20.453125 L 8.03125 -18.03125 C 9.664062 -19.9375 11.644531 -20.863281 13.96875 -20.8125 C 15.894531 -20.769531 17.316406 -20.0625 18.234375 -18.6875 C 19.160156 -17.320312 19.492188 -15.421875 19.234375 -12.984375 L 17.09375 0 L 11.765625 0 L 13.953125 -13.046875 C 14.015625 -13.535156 14.023438 -13.984375 13.984375 -14.390625 C 13.828125 -15.671875 13.023438 -16.332031 11.578125 -16.375 C 10.179688 -16.425781 8.925781 -15.773438 7.8125 -14.421875 L 5.265625 0 L -0.0625 0 L 3.5 -20.4375 Z M 8.484375 -20.453125 "/></g></g><g style="fill:#289db9;fill-opacity:1;"><g transform="translate(322.093133, 89.90471)"><path style="stroke:none" d="M 10.859375 -25.453125 L 9.96875 -20.4375 L 13.375 -20.4375 L 12.671875 -16.421875 L 9.265625 -16.421875 L 7.53125 -6.1875 C 7.457031 -5.550781 7.507812 -5.0625 7.6875 -4.71875 C 7.863281 -4.375 8.289062 -4.191406 8.96875 -4.171875 C 9.164062 -4.160156 9.707031 -4.191406 10.59375 -4.265625 L 10.21875 -0.09375 C 9.269531 0.21875 8.25 0.363281 7.15625 0.34375 C 5.40625 0.3125 4.101562 -0.234375 3.25 -1.296875 C 2.394531 -2.367188 2.039062 -3.816406 2.1875 -5.640625 L 3.953125 -16.421875 L 1.0625 -16.421875 L 1.75 -20.4375 L 4.640625 -20.4375 L 5.515625 -25.453125 Z M 10.859375 -25.453125 "/></g></g></g></svg>